<?xml version="1.0" standalone="no"?>
<!DOCTYPE svg PUBLIC "-//W3C//DTD SVG 1.1//EN" "http://www.w3.org/Graphics/SVG/1.1/DTD/svg11.dtd" >
<svg xmlns="http://www.w3.org/2000/svg" xmlns:xlink="http://www.w3.org/1999/xlink" version="1.1">
<metadata>
Created by FontForge 20161116 at Tue Apr  8 10:18:29 2008
 By Jimmy Warting
Copyright (C) 1993; Type Market Ltd. Moscow, 119136, Box 20; phone:(095)1427712; Created by A.Kustov
</metadata>
<defs>
<font id="HeliosLight" horiz-adv-x="556" >
  <font-face 
    font-family="HeliosLight"
    font-weight="400"
    font-stretch="normal"
    units-per-em="1000"
    panose-1="2 0 5 3 4 0 0 2 0 4"
    ascent="800"
    descent="-200"
    x-height="518"
    cap-height="720"
    bbox="-46 -212 1220 954"
    underline-thickness="58"
    underline-position="-90"
    unicode-range="U+0020-2122"
  />
<missing-glyph horiz-adv-x="500" 
 />
    <glyph glyph-name=".notdef" horiz-adv-x="500" 
 />
    <glyph glyph-name=".null" horiz-adv-x="0" 
 />
    <glyph glyph-name="nonmarkingreturn" horiz-adv-x="278" 
 />
    <glyph glyph-name="space" unicode=" " horiz-adv-x="278" 
 />
    <glyph glyph-name="space" unicode="&#xa0;" horiz-adv-x="278" 
 />
    <glyph glyph-name="numbersign" unicode="#" 
d="M504 228h-111l-32 -228h-59l31 228h-137l-34 -228h-59l34 228h-110v59h119l21 140h-112v59h120l32 212h60l-32 -212h136l31 212h59l-31 -212h100v-59h-108l-20 -140h102v-59zM227 427l-22 -140h138l20 140h-136z" />
    <glyph glyph-name="dollar" unicode="$" 
d="M255 651q-28 0 -52.5 -9t-43 -25.5t-29 -39.5t-10.5 -51q0 -33 10.5 -55t29 -36.5t43 -23.5t52.5 -17v257zM302 35q31 0 58.5 11t48.5 30t33 45.5t12 58.5q0 37 -12 61.5t-32.5 40t-48 24.5t-59.5 16v-287zM302 -95h-47v76q-42 0 -81 15.5t-69 41.5t-47.5 61t-17.5 74v30
h62q0 -34 11 -63.5t31.5 -52t48.5 -36.5t62 -16v297q-41 10 -77.5 23.5t-63.5 35t-42.5 53.5t-15.5 79q0 42 16 75.5t43 57t63 36.5t77 13v61h47v-61q41 0 76 -11.5t61 -34t41 -55.5t17 -75h-65q0 28 -10 50.5t-28 38.5t-41.5 24.5t-50.5 8.5v-266q49 -12 89 -26t68 -37
t43.5 -59.5t15.5 -93.5q0 -44 -19 -79t-49.5 -59t-69.5 -37t-78 -13v-76z" />
    <glyph glyph-name="percent" horiz-adv-x="889" 
d="M658 331q34 0 64.5 -13t53 -35.5t35.5 -53t13 -64.5t-13 -64t-35.5 -52.5t-53 -35.5t-64.5 -13t-64 13t-52.5 35.5t-35.5 52.5t-13 64t13 64t35.5 52.5t52.5 36t64 13.5zM658 274q-22 0 -41.5 -8.5t-34.5 -23.5t-23.5 -35t-8.5 -42t8.5 -41.5t23.5 -34.5t34.5 -23.5
t41.5 -8.5t41.5 8.5t34.5 23.5t24 34.5t9 41.5t-8.5 41.5t-23.5 34.5t-35 24t-42 9zM232 698q34 0 64.5 -13t53 -35.5t35.5 -53t13 -64.5t-13 -64t-35.5 -52.5t-53 -35.5t-64.5 -13t-64 13t-52.5 35.5t-35.5 52.5t-13 64t13 64t35.5 52.5t52.5 36t64 13.5zM232 641
q-22 0 -41.5 -8.5t-34.5 -23.5t-23.5 -35t-8.5 -42t8.5 -41.5t23.5 -34.5t34.5 -23.5t41.5 -8.5t41.5 8.5t34.5 23.5t24 34.5t9 41.5t-8.5 41.5t-23.5 34.5t-35 24t-42 9zM271 -14h-52l397 719h52z" />
    <glyph glyph-name="ampersand" unicode="&#x26;" horiz-adv-x="667" 
d="M249 375q-30 -14 -55.5 -33.5t-44 -43.5t-29.5 -51.5t-11 -56.5q0 -36 12.5 -64.5t34 -48.5t51 -31t64.5 -11q58 0 102.5 26.5t80.5 69.5zM293 666q-19 0 -36 -6t-30.5 -17t-21.5 -27t-8 -36q0 -16 8 -35t19.5 -37t24.5 -34.5t23 -28.5q57 32 85 62.5t28 68.5q0 17 -6 33
t-18 29t-29 20.5t-39 7.5zM577 326q-2 -49 -12.5 -97.5t-37.5 -90.5l117 -138h-81l-70 85q-47 -56 -101 -80t-126 -24q-47 0 -88 15.5t-71.5 43.5t-48 67.5t-17.5 87.5q0 40 14 74t37.5 62t54.5 49.5t66 37.5q-29 34 -53 73.5t-24 87.5q0 34 13 60.5t35 44.5t51.5 27t62.5 9
t61 -11t48 -30t31 -44.5t11 -53.5q0 -32 -9.5 -56.5t-27.5 -45.5t-44.5 -40t-60.5 -39l181 -214q19 32 24.5 67.5t5.5 72.5h59z" />
    <glyph glyph-name="quotesingle" unicode="'" horiz-adv-x="222" 
d="M85 720h52v-226h-52v226z" />
    <glyph glyph-name="parenleft" unicode="(" horiz-adv-x="333" 
d="M277 739q-72 -104 -113 -222t-41 -245q0 -125 42.5 -242.5t111.5 -220.5h-51q-41 57 -73 110.5t-54 109t-33 116t-11 131.5q0 69 11.5 129.5t33.5 116.5t53.5 109.5t72.5 107.5h51z" />
    <glyph glyph-name="parenright" unicode=")" horiz-adv-x="333" 
d="M107 739q41 -57 73 -110.5t53.5 -109t33 -116t11.5 -131.5q0 -69 -11.5 -129.5t-33.5 -116.5t-54 -109.5t-72 -107.5h-51q72 104 113 221.5t41 244.5q0 125 -42.5 243t-111.5 221h51z" />
    <glyph glyph-name="asterisk" unicode="*" horiz-adv-x="389" 
d="M173 603v117h42v-117l114 42l15 -44l-114 -37l75 -106l-39 -24l-74 108l-78 -106l-35 27l77 101l-112 40l18 42z" />
    <glyph glyph-name="plus" unicode="+" horiz-adv-x="660" 
d="M300 500h60v-220h220v-60h-220v-220h-60v220h-220v60h220v220z" />
    <glyph glyph-name="comma" unicode="," horiz-adv-x="278" 
d="M175 88v-118q0 -44 -20.5 -70.5t-52.5 -36.5v37q12 8 23 22t11 44v34h-34v88h73z" />
    <glyph glyph-name="hyphen" unicode="-" horiz-adv-x="333" 
d="M293 280v-60h-253v60h253z" />
    <glyph glyph-name="period" unicode="." horiz-adv-x="278" 
d="M102 0v88h73v-88h-73z" />
    <glyph glyph-name="slash" unicode="/" horiz-adv-x="278" 
d="M53 -90h-56l235 829h56z" />
    <glyph glyph-name="zero" unicode="0" 
d="M452 347q0 57 -6.5 111.5t-25.5 97.5t-53.5 69t-90.5 26q-53 0 -86.5 -26.5t-52.5 -70.5t-26.5 -100t-7.5 -114q0 -68 8.5 -123.5t28.5 -94.5t53.5 -60.5t84.5 -21.5q57 0 91.5 28t52.5 72t24 99t6 108zM278 705q52 0 90 -15.5t64.5 -42.5t43 -63t25.5 -76.5t12 -83.5
t3 -84q0 -70 -10 -134t-36.5 -113t-72.5 -78t-119 -29t-119.5 29t-73 78.5t-36.5 115t-10 138.5q0 67 9 131t34.5 114.5t72.5 81.5t123 31z" />
    <glyph glyph-name="one" unicode="1" 
d="M366 705v-705h-64v524h-182v42q40 3 72.5 8t57 19t41 40.5t24.5 71.5h51z" />
    <glyph glyph-name="two" unicode="2" 
d="M69 474q0 52 16 94.5t46 73t72.5 47t94.5 16.5q53 0 93.5 -15.5t68 -41.5t41.5 -62t14 -76q0 -47 -15.5 -83t-41 -64t-58 -50t-66.5 -41.5t-67 -37.5t-59 -38q-17 -13 -33 -27.5t-29 -31.5t-21 -37.5t-9 -45.5h393v-54h-461q0 51 10.5 92t44.5 80q37 42 76.5 72
t77.5 53.5t72 43t60 42.5t41 52t15 71q0 34 -12 61t-33 46t-49 28.5t-61 9.5q-35 0 -63 -14.5t-48 -38.5t-31 -56t-11 -68h-68z" />
    <glyph glyph-name="three" unicode="3" 
d="M58 500q0 31 9.5 66.5t35 66.5t70 51.5t113.5 20.5q42 0 78.5 -10.5t63.5 -32t43 -54.5t16 -77q0 -55 -24.5 -95t-75.5 -62q38 -12 62.5 -31.5t38.5 -43t19 -49.5t5 -50q0 -44 -15 -82.5t-44 -68t-71.5 -46.5t-96.5 -17q-61 0 -106 11t-75 36.5t-47 67t-23 103.5h64
q0 -81 48.5 -122.5t126.5 -41.5q38 0 70 13t55.5 34.5t36.5 50.5t13 61q0 43 -18 70t-49 43t-72.5 22t-87.5 6v52q45 0 82 6t63.5 21t41.5 41t15 67q0 33 -12 56.5t-32.5 38.5t-48 22t-57.5 7q-34 0 -61.5 -11t-47.5 -31.5t-31 -48t-11 -60.5h-64z" />
    <glyph glyph-name="four" unicode="4" 
d="M422 698v-470h98v-54h-98v-174h-64v174h-322v55l328 469h58zM99 228h259v374z" />
    <glyph glyph-name="five" unicode="5" 
d="M468 698v-54h-296l-44 -237q21 13 38.5 22t35.5 14.5t37.5 7.5t43.5 2q48 0 89 -16t71 -46t46.5 -73.5t16.5 -97.5q0 -56 -18.5 -99.5t-49.5 -73.5t-71.5 -45.5t-83.5 -15.5q-50 0 -93.5 10t-76.5 33.5t-53.5 61t-24.5 92.5h64q10 -72 57.5 -107.5t116.5 -35.5
q39 0 70.5 14t53.5 38.5t33.5 57t11.5 70.5q0 39 -12.5 72t-35 57t-55 37t-72.5 13q-48 0 -86 -17.5t-67 -55.5l-53 7l57 365h350z" />
    <glyph glyph-name="six" unicode="6" 
d="M437 532q-11 54 -44 86.5t-90 32.5q-65 0 -102.5 -31t-57.5 -78.5t-27 -103.5t-11 -106q15 20 31.5 40t37.5 35.5t49 25t67 9.5q107 0 165.5 -60.5t58.5 -166.5q0 -107 -59 -168t-167 -61q-53 0 -98 17.5t-78 57.5t-52 104.5t-19 157.5q0 63 11 130.5t39.5 123.5t78 92
t127.5 36q84 0 140 -44t66 -129h-66zM288 388q-37 0 -66.5 -14t-50 -38t-31.5 -55.5t-11 -67.5q0 -30 8.5 -60.5t28 -55.5t49.5 -41t74 -16q45 0 75.5 15.5t49.5 41t27.5 57t8.5 63.5q0 82 -39.5 126.5t-122.5 44.5z" />
    <glyph glyph-name="seven" unicode="7" 
d="M59 698h449v-60q-76 -86 -129 -176.5t-87 -176t-50.5 -159.5t-19.5 -126h-70q5 76 30.5 161.5t63.5 169.5t86 162.5t99 140.5h-372v64z" />
    <glyph glyph-name="eight" unicode="8" 
d="M279 345q-37 0 -68 -9t-54 -27.5t-36 -47t-13 -67.5q0 -33 12.5 -61t35 -48.5t55 -32.5t72.5 -12q35 0 65 11.5t52.5 32.5t35 50t12.5 64q0 37 -13 64.5t-36 46t-54 27.5t-66 9zM276 651q-30 0 -56 -8t-45.5 -24t-30.5 -40t-11 -55q0 -33 12.5 -56.5t33.5 -38.5t48 -22.5
t56 -7.5t54 7.5t43 24.5t28.5 43t10.5 64q0 54 -35 83.5t-108 29.5zM167 379q-26 16 -44.5 30.5t-30.5 31.5t-17.5 38.5t-5.5 53.5q0 36 16 67.5t43.5 55t64 36.5t77.5 13q40 0 78.5 -10t68.5 -31t48 -53.5t18 -77.5q0 -55 -22.5 -94t-73.5 -64q58 -21 91.5 -67t33.5 -108
q0 -52 -17.5 -92t-50 -67t-78.5 -41t-102 -14q-38 0 -77.5 13t-71 39t-51.5 65t-20 91q0 63 31.5 112.5t91.5 72.5z" />
    <glyph glyph-name="nine" unicode="9" 
d="M118 155q11 -57 44.5 -86t92.5 -29q63 0 100.5 31t58 78t28 101.5t9.5 102.5l-2 2q-32 -54 -79.5 -82t-110.5 -28q-50 0 -90 16t-68.5 46t-44 72t-15.5 93q0 50 14 92.5t42 74t70.5 49t100.5 17.5q71 0 118.5 -28t76 -76t40.5 -113t12 -139q0 -90 -19 -157.5
t-53.5 -113.5t-81.5 -69t-103 -23q-41 0 -77 10t-63 31t-44 53t-21 75h65zM268 651q-81 0 -122 -49t-41 -132q0 -81 42.5 -126t120.5 -45q37 0 66.5 14t50 38t31 55.5t10.5 67.5q0 78 -41.5 127.5t-116.5 49.5z" />
    <glyph glyph-name="colon" unicode=":" horiz-adv-x="278" 
d="M102 0v88h73v-88h-73zM102 404v88h73v-88h-73z" />
    <glyph glyph-name="semicolon" unicode=";" horiz-adv-x="278" 
d="M175 88v-118q0 -44 -20.5 -70.5t-52.5 -36.5v37q12 8 23 22t11 44v34h-34v88h73zM102 404v88h73v-88h-73z" />
    <glyph glyph-name="less" unicode="&#x3c;" horiz-adv-x="660" 
d="M580 58v-64l-500 235v53l500 223v-64l-421 -186z" />
    <glyph glyph-name="equal" unicode="=" horiz-adv-x="660" 
d="M580 318h-500v60h500v-60zM580 124h-500v60h500v-60z" />
    <glyph glyph-name="greater" unicode="&#x3e;" horiz-adv-x="660" 
d="M580 229l-500 -235v64l421 197l-421 186v64l500 -223v-53z" />
    <glyph glyph-name="question" unicode="?" horiz-adv-x="500" 
d="M225 182q0 27 1.5 52t6.5 48t16 44t31 42q22 23 46 45t44 44.5t33.5 46.5t13.5 52q0 27 -10.5 50.5t-30.5 41t-49 27.5t-66 10t-65.5 -13t-48 -35.5t-29.5 -53.5t-10 -67h-61q0 50 15.5 91t44 70.5t68 45.5t88.5 16q51 0 91.5 -13.5t68.5 -38t43 -59.5t15 -77
q0 -44 -19 -75.5t-46 -59.5t-57.5 -55t-54.5 -60q-6 -9 -10.5 -23t-6.5 -30.5t-3 -33.5t-1 -32h-58zM219 0v88h73v-88h-73z" />
    <glyph glyph-name="at" unicode="@" horiz-adv-x="800" 
d="M743 167q-24 -44 -59 -78.5t-77.5 -58.5t-90.5 -36.5t-97 -12.5q-80 0 -149.5 30t-120.5 82t-80 121.5t-29 148.5q0 78 30 146.5t81.5 119.5t119.5 80.5t144 29.5q72 0 135 -23.5t109.5 -65.5t73.5 -100t27 -127q0 -59 -21.5 -112t-55 -92.5t-75 -62.5t-81.5 -23
q-26 0 -51.5 11.5t-34.5 38.5q-23 -23 -55 -36.5t-64 -13.5t-58 12t-44 32.5t-27.5 47.5t-9.5 58q0 50 18 103.5t50.5 98t78 73t101.5 28.5q35 0 66 -17t46 -49l15 46h67q-27 -80 -46 -137t-31.5 -95t-19.5 -61t-10.5 -35.5t-4.5 -18t-1 -8.5q0 -13 6 -20.5t23 -7.5
q31 0 60 23t51 58.5t35 78.5t13 83q0 61 -23 110t-62 83t-90 52t-108 18q-69 0 -127.5 -26.5t-100.5 -72t-65.5 -106t-23.5 -128.5t24.5 -127t67.5 -103t101 -69.5t126 -25.5q39 0 76.5 9t72 26.5t64 43t52.5 57.5h59zM337 196q34 0 64 27.5t52.5 67.5t35.5 84.5t13 78.5
q0 29 -19 51t-50 22q-40 0 -72 -24.5t-54.5 -61t-35 -78t-12.5 -75.5q0 -36 20 -64t58 -28z" />
    <glyph glyph-name="A" unicode="A" horiz-adv-x="651" 
d="M365 720l276 -720h-70l-83 226h-328l-85 -226h-70l283 720h77zM183 284h282l-141 378z" />
    <glyph glyph-name="B" unicode="B" horiz-adv-x="663" 
d="M149 58h173q56 0 97.5 5t68.5 20.5t40.5 44t13.5 75.5q0 45 -15 72.5t-43 42.5t-67 20.5t-87 5.5h-181v-286zM149 402h172q53 0 89 9t58 26.5t31.5 43t9.5 58.5q0 34 -11 57.5t-35 38t-62.5 21t-94.5 6.5h-157v-260zM81 720h260q63 0 108 -13t73.5 -37t41.5 -57.5
t13 -73.5q0 -38 -10 -65.5t-26 -46t-36.5 -29t-42.5 -14.5v-2q75 -11 111.5 -59t36.5 -120q0 -56 -17.5 -95t-48.5 -63t-74.5 -34.5t-94.5 -10.5h-294v720z" />
    <glyph glyph-name="C" unicode="C" horiz-adv-x="727" 
d="M597 511q-21 92 -78 131t-149 39q-65 0 -112 -26t-77.5 -70t-45 -101.5t-14.5 -121.5q0 -60 12.5 -118t41.5 -103.5t78 -73.5t123 -28q46 0 84 15t66.5 41.5t48 62.5t29.5 79h71q-12 -52 -35 -98.5t-60.5 -81.5t-91 -55.5t-125.5 -20.5q-83 0 -142 30.5t-96.5 82.5
t-54.5 120.5t-17 145.5q0 103 25.5 175t70.5 117.5t106 66t133 20.5q55 0 102.5 -14.5t84 -43.5t60 -71.5t32.5 -98.5h-70z" />
    <glyph glyph-name="D" unicode="D" horiz-adv-x="722" 
d="M81 720h246q30 0 59 -1.5t57 -7t54.5 -16.5t51.5 -29q36 -26 59 -63.5t36.5 -79t19 -84t5.5 -78.5t-4.5 -73t-14.5 -72.5t-26.5 -68t-41.5 -59.5q-25 -28 -54.5 -45t-62 -26.5t-67.5 -13t-71 -3.5h-246v720zM149 58h163q46 0 86.5 5.5t82.5 27.5q36 18 59 49t36.5 67.5
t19 76.5t5.5 77q0 39 -5 79.5t-19 77t-38 67t-62 50.5q-32 17 -76 22t-89 5h-163v-604z" />
    <glyph glyph-name="E" unicode="E" horiz-adv-x="611" 
d="M560 720v-58h-411v-251h371v-58h-371v-295h421v-58h-489v720h479z" />
    <glyph glyph-name="F" unicode="F" horiz-adv-x="563" 
d="M545 720v-58h-396v-251h360v-58h-360v-353h-68v720h464z" />
    <glyph glyph-name="G" unicode="G" horiz-adv-x="776" 
d="M617 511q-9 40 -30.5 72t-51.5 53.5t-67 33t-77 11.5q-71 0 -122 -25t-84 -70.5t-48.5 -109t-15.5 -139.5q0 -60 17.5 -114t51 -95t82 -65t110.5 -24q52 0 97.5 17t79 51.5t52.5 86t19 120.5h-243v58h308v-372h-58v123q-19 -32 -43.5 -58.5t-56.5 -45t-74 -28.5t-95 -10
q-68 0 -126 24t-100 71.5t-65.5 119.5t-23.5 168q0 79 20 147.5t61.5 119t104 79.5t147.5 29q57 0 106.5 -14t89 -42.5t66.5 -71t39 -100.5h-70z" />
    <glyph glyph-name="H" unicode="H" horiz-adv-x="724" 
d="M149 411h426v309h68v-720h-68v353h-426v-353h-68v720h68v-309z" />
    <glyph glyph-name="I" unicode="I" horiz-adv-x="230" 
d="M149 0h-68v720h68v-720z" />
    <glyph glyph-name="J" unicode="J" horiz-adv-x="500" 
d="M419 720v-523q0 -105 -49 -160.5t-154 -55.5q-61 0 -98 20.5t-57.5 55t-27.5 79t-7 92.5h68q0 -33 2.5 -66.5t15 -59.5t39 -42.5t73.5 -16.5q70 0 98.5 40t28.5 116v521h68z" />
    <glyph glyph-name="K" unicode="K" horiz-adv-x="663" 
d="M149 357l357 363h89l-284 -287l334 -433h-83l-300 391l-113 -113v-278h-68v720h68v-363z" />
    <glyph glyph-name="L" unicode="L" 
d="M149 58h386v-58h-454v720h68v-662z" />
    <glyph glyph-name="M" unicode="M" horiz-adv-x="839" 
d="M185 720l236 -635h2l232 635h103v-720h-68v642h-2l-236 -642h-64l-237 642h-2v-642h-68v720h104z" />
    <glyph glyph-name="N" unicode="N" horiz-adv-x="725" 
d="M158 720l416 -629h2v629h68v-720h-79l-414 628h-2v-628h-68v720h77z" />
    <glyph glyph-name="O" unicode="O" horiz-adv-x="777" 
d="M53 359q0 78 21.5 147.5t63.5 121t104 81.5t143 30q84 0 147.5 -29.5t106 -81t64 -121t21.5 -148.5q0 -78 -21.5 -146.5t-63.5 -120t-105 -81.5t-146 -30t-146 30t-105 81.5t-63 120t-21 146.5zM389 39q70 0 120.5 26.5t83 70.5t48 102t15.5 121q0 75 -18.5 134.5
t-53.5 101.5t-85 64t-112 22q-69 0 -119.5 -27t-83 -71.5t-48 -102.5t-15.5 -121q0 -64 15.5 -122t48 -102t83 -70t121.5 -26z" />
    <glyph glyph-name="P" unicode="P" horiz-adv-x="632" 
d="M149 0h-68v720h258q70 0 116.5 -16t74 -44t38.5 -64.5t11 -76.5q0 -60 -22 -99t-58 -61.5t-83 -31.5t-97 -9h-170v-318zM149 376h150q48 0 87 5.5t67 20.5t43 42.5t15 72.5q0 47 -13.5 75.5t-40.5 44t-68.5 20.5t-97.5 5h-142v-286z" />
    <glyph glyph-name="Q" unicode="Q" horiz-adv-x="777" 
d="M712 -6l-38 -46l-106 82q-37 -23 -81.5 -36t-98.5 -13q-83 0 -146 30t-105 81.5t-63 120t-21 146.5q0 75 20.5 143.5t61.5 121t103.5 84t146.5 31.5q76 0 138.5 -25t107 -73t69 -119t24.5 -163q0 -88 -27 -163t-81 -128zM566 107q46 44 68 110.5t22 141.5q0 81 -20.5 141
t-56.5 100.5t-85 60.5t-107 20q-69 0 -119.5 -27t-83 -72t-48 -103t-15.5 -120q0 -64 15.5 -122t48 -102t83 -70t121.5 -26q38 0 69 8.5t57 23.5l-82 63l36 47z" />
    <glyph glyph-name="R" unicode="R" horiz-adv-x="680" 
d="M149 385h212q38 0 70.5 8t56.5 25.5t38 44.5t14 65q0 40 -14.5 66t-39 41t-56 21t-65.5 6h-216v-277zM149 0h-68v720h282q119 0 182 -44.5t63 -144.5q0 -68 -27.5 -108t-89.5 -68q31 -11 49.5 -32t28 -47.5t12 -57t2.5 -58.5q0 -68 8.5 -107.5t21.5 -45.5v-7h-75
q-6 10 -10 27t-7 38t-4.5 43.5t-1.5 43.5q0 58 -10 93t-29.5 53t-48 23.5t-64.5 5.5h-214v-327z" />
    <glyph glyph-name="S" unicode="S" horiz-adv-x="627" 
d="M109 215q4 -48 21.5 -81.5t45 -54.5t63.5 -30.5t77 -9.5q48 0 83 12t57 32.5t32.5 47.5t10.5 57q0 42 -19 68t-49.5 42.5t-70 26.5t-81 19.5t-81 22.5t-70 35t-49.5 56.5t-19 87.5q0 37 15.5 72t46 62t76.5 43t106 16q61 0 106.5 -17t75.5 -46.5t45 -68.5t15 -83h-65
q0 41 -14.5 71t-39.5 49t-57 28t-66 9q-47 0 -80.5 -12t-55.5 -31.5t-32 -44.5t-10 -50q0 -41 19 -65.5t50 -40t70.5 -25t81 -18.5t81 -21.5t70.5 -35t50 -57.5t19 -89q0 -100 -69 -155t-194 -55q-56 0 -104 14.5t-83 44t-54.5 73t-19.5 102.5h66z" />
    <glyph glyph-name="T" unicode="T" 
d="M312 0h-68v662h-228v58h524v-58h-228v-662z" />
    <glyph glyph-name="U" unicode="U" horiz-adv-x="720" 
d="M149 720v-429q0 -134 50 -193t161 -59q58 0 98.5 15.5t65.5 47t36 78.5t11 111v429h68v-449q0 -141 -69.5 -215.5t-209.5 -74.5q-141 0 -210 76t-69 214v449h68z" />
    <glyph glyph-name="V" unicode="V" horiz-adv-x="611" 
d="M89 720l217 -640l216 640h71l-250 -720h-75l-250 720h71z" />
    <glyph glyph-name="W" unicode="W" horiz-adv-x="889" 
d="M82 720l155 -624h2l167 624h76l164 -624h2l157 624h70l-189 -720h-75l-167 636h-2l-167 -636h-75l-186 720h68z" />
    <glyph glyph-name="X" unicode="X" horiz-adv-x="611" 
d="M107 720l197 -303l198 303h79l-236 -350l247 -370h-78l-210 318l-209 -318h-77l248 370l-238 350h79z" />
    <glyph glyph-name="Y" unicode="Y" horiz-adv-x="611" 
d="M90 720l212 -347l217 347h79l-261 -406v-314h-68v309l-257 411h78z" />
    <glyph glyph-name="Z" unicode="Z" horiz-adv-x="611" 
d="M576 720v-57l-461 -605h464v-58h-548v57l461 605h-422v58h506z" />
    <glyph glyph-name="bracketleft" unicode="[" horiz-adv-x="333" 
d="M282 739v-50h-127v-830h127v-50h-191v930h191z" />
    <glyph glyph-name="backslash" unicode="\" horiz-adv-x="278" 
d="M-46 739h60l310 -739h-60z" />
    <glyph glyph-name="bracketright" unicode="]" horiz-adv-x="333" 
d="M242 739v-930h-191v50h127v830h-127v50h191z" />
    <glyph glyph-name="asciicircum" unicode="^" horiz-adv-x="660" 
d="M73 245l230 453h52l231 -453h-57l-201 392l-197 -392h-58z" />
    <glyph glyph-name="underscore" unicode="_" horiz-adv-x="500" 
d="M0 -119v58h500v-58h-500z" />
    <glyph glyph-name="grave" unicode="`" horiz-adv-x="333" 
d="M45 713h78l111 -139h-51z" />
    <glyph glyph-name="a" unicode="a" horiz-adv-x="558" 
d="M413 272q-20 -11 -59.5 -18t-95.5 -11q-69 -5 -107.5 -31t-38.5 -79q0 -24 9.5 -41.5t25 -29t36 -17t41.5 -5.5q36 0 70 9t60.5 27.5t42.5 47t16 67.5v81zM72 361q3 46 21 78.5t46.5 53t66 30t79.5 9.5q39 0 73.5 -8.5t60 -27t40 -49.5t14.5 -76v-282q0 -25 5.5 -37
t21.5 -12q6 0 15.5 2.5t20.5 6.5v-47q-11 -4 -25 -7t-22 -3q-37 0 -54 16t-22 64h-2q-35 -42 -84 -64t-106 -22q-34 0 -65.5 9t-55.5 28t-38 46.5t-14 65.5q0 132 181 156l115 15q38 5 53.5 18.5t15.5 48.5q0 46 -29.5 75.5t-99.5 29.5q-31 0 -57 -5.5t-45.5 -19t-32 -36
t-16.5 -56.5h-61z" />
    <glyph glyph-name="b" unicode="b" horiz-adv-x="596" 
d="M307 478q-78 0 -126.5 -58t-48.5 -168q0 -42 11.5 -80.5t33.5 -67.5t55 -46.5t75 -17.5q38 0 70.5 16t56 44.5t37 67t13.5 82.5q0 47 -10 88.5t-32 72.5t-55.5 49t-79.5 18zM132 0h-60v720h60v-285q29 48 79.5 72.5t105.5 24.5q59 0 102.5 -22.5t72 -60t42.5 -87.5
t14 -104q0 -57 -13 -107t-41.5 -86.5t-72.5 -57.5t-107 -21q-25 0 -51 7t-50.5 20t-45 32.5t-33.5 45.5h-2v-91z" />
    <glyph glyph-name="c" unicode="c" horiz-adv-x="557" 
d="M440 355q-16 58 -55 90.5t-99 32.5q-46 0 -79 -19t-54 -50.5t-31 -71t-10 -79.5q0 -41 9.5 -80t30.5 -70t54 -49.5t80 -18.5q67 0 107.5 37t51.5 102h64q-8 -43 -25.5 -78.5t-45 -61t-65.5 -39.5t-87 -14q-62 0 -107 21t-74 57.5t-43 86.5t-14 107q0 54 15.5 103.5
t45.5 87.5t74.5 60.5t102.5 22.5q90 0 145.5 -43t69.5 -134h-61z" />
    <glyph glyph-name="d" unicode="d" horiz-adv-x="596" 
d="M287 478q-78 0 -126.5 -58t-48.5 -168q0 -42 11.5 -80.5t33.5 -67.5t55 -46.5t75 -17.5q38 0 70.5 16t56 44.5t37 67t13.5 82.5q0 47 -10 88.5t-32 72.5t-55.5 49t-79.5 18zM464 720h60v-720h-60v91h-2q-13 -26 -33.5 -45.5t-45 -32.5t-50.5 -20t-51 -7q-63 0 -107 21
t-72.5 57.5t-41.5 86.5t-13 107q0 54 14 104t42.5 87.5t72 60t102.5 22.5q55 0 105.5 -24.5t79.5 -72.5v285z" />
    <glyph glyph-name="e" unicode="e" horiz-adv-x="562" 
d="M450 295q0 38 -10.5 71.5t-31 58t-51.5 39t-71 14.5t-70.5 -15t-52 -40t-34.5 -58t-17 -70h338zM112 245q0 -42 11 -79t33 -65t54.5 -44.5t75.5 -16.5q59 0 101 31t56 88h67q-11 -37 -29 -68.5t-45 -55t-64 -36.5t-86 -13q-62 0 -107 21t-74 57.5t-43 86t-14 106.5
t16.5 107t47 87.5t74.5 59t100 21.5q107 0 167.5 -73t60.5 -214h-402z" />
    <glyph glyph-name="f" unicode="f" horiz-adv-x="278" 
d="M20 468v50h77v82q0 62 25 97t85 35q14 0 26 -1t24 -5v-51q-20 5 -36 5q-23 0 -36 -8.5t-19 -22.5t-7.5 -31.5t-1.5 -35.5v-64h100v-50h-100v-468h-60v468h-77z" />
    <glyph glyph-name="g" unicode="g" horiz-adv-x="596" 
d="M287 478q-78 0 -126.5 -58t-48.5 -168q0 -42 11.5 -80.5t33.5 -67.5t55 -46.5t75 -17.5q38 0 70.5 16t56 44.5t37 67t13.5 82.5q0 47 -10 88.5t-32 72.5t-55.5 49t-79.5 18zM524 518v-468q0 -52 -10.5 -99.5t-37.5 -83.5t-74 -57.5t-121 -21.5q-57 0 -98 14.5t-67 36.5
t-39.5 48.5t-14.5 49.5h64q7 -29 22 -47.5t35.5 -29t45.5 -14.5t52 -4q61 0 97.5 21t55.5 55t24.5 77.5t5.5 87.5q-29 -48 -79.5 -72.5t-105.5 -24.5q-59 0 -102.5 22.5t-72 60t-42.5 87.5t-14 104q0 57 13 107t41.5 86.5t72.5 57.5t107 21q25 0 51 -7t50.5 -20t45 -33
t33.5 -45h2v91h60z" />
    <glyph glyph-name="h" unicode="h" horiz-adv-x="555" 
d="M132 446q36 38 74.5 62t92.5 24q85 0 134.5 -47t49.5 -146v-339h-60v338q0 70 -31 105t-103 35q-42 0 -72 -16.5t-48.5 -43.5t-27.5 -62t-9 -72v-284h-60v720h60v-274z" />
    <glyph glyph-name="i" unicode="i" horiz-adv-x="204" 
d="M132 0h-60v518h60v-518zM72 631v89h60v-89h-60z" />
    <glyph glyph-name="j" unicode="j" horiz-adv-x="220" 
d="M148 518v-587q0 -33 -3 -58t-13.5 -42.5t-31 -26t-56.5 -8.5q-22 0 -39 4v53q5 -1 14 -1.5t11 -0.5q35 0 46.5 18.5t11.5 53.5v595h60zM88 631v89h60v-89h-60z" />
    <glyph glyph-name="k" unicode="k" horiz-adv-x="504" 
d="M132 272l254 246h82l-194 -187l217 -331h-67l-194 289l-98 -93v-196h-60v720h60v-448z" />
    <glyph glyph-name="l" unicode="l" horiz-adv-x="204" 
d="M132 0h-60v720h60v-720z" />
    <glyph glyph-name="m" unicode="m" horiz-adv-x="848" 
d="M132 440h2q23 45 66 68.5t94 23.5q36 0 61 -8t42.5 -21.5t29 -31.5t19.5 -39q26 51 69.5 75.5t99.5 24.5q53 0 84.5 -17.5t48.5 -46t22.5 -65.5t5.5 -76v-327h-60v358q0 56 -23.5 88t-87.5 32q-37 0 -65 -14.5t-47 -40.5t-29 -62.5t-10 -81.5v-279h-60v358q0 56 -23.5 88
t-87.5 32q-40 0 -68.5 -16.5t-47 -44t-27 -63.5t-8.5 -75v-279h-60v518h60v-78z" />
    <glyph glyph-name="n" unicode="n" horiz-adv-x="555" 
d="M132 446q36 38 74.5 62t92.5 24q85 0 134.5 -47t49.5 -146v-339h-60v338q0 70 -31 105t-103 35q-42 0 -72 -16.5t-48.5 -43.5t-27.5 -62t-9 -72v-284h-60v518h60v-72z" />
    <glyph glyph-name="o" unicode="o" horiz-adv-x="576" 
d="M288 532q61 0 106 -21.5t75 -58t44.5 -86.5t14.5 -107q0 -62 -17 -112t-48.5 -86t-76 -55.5t-98.5 -19.5q-50 0 -93.5 17t-76 51.5t-51.5 85.5t-19 119q0 57 15 106.5t45 86.5t75 58.5t105 21.5zM288 478q-47 0 -80.5 -18.5t-54.5 -49t-31 -70t-10 -81.5
q0 -48 11.5 -88.5t33.5 -69.5t55 -45t76 -16q47 0 80.5 18.5t54.5 49.5t31 70t10 81q0 46 -9.5 86t-30.5 69.5t-54.5 46.5t-81.5 17z" />
    <glyph glyph-name="p" unicode="p" horiz-adv-x="596" 
d="M307 478q-78 0 -126.5 -58t-48.5 -168q0 -42 11.5 -80.5t33.5 -67.5t55 -46.5t75 -17.5q38 0 70.5 16t56 44.5t37 67t13.5 82.5q0 47 -10 88.5t-32 72.5t-55.5 49t-79.5 18zM132 -204h-60v722h60v-91h2q13 25 33.5 45t45 33t50.5 20t51 7q63 0 107 -21t72.5 -57.5
t41.5 -86.5t13 -107q0 -54 -14 -104t-42.5 -87.5t-72 -60t-102.5 -22.5q-55 0 -105.5 24.5t-79.5 72.5v-287z" />
    <glyph glyph-name="q" unicode="q" horiz-adv-x="596" 
d="M287 478q-78 0 -126.5 -58t-48.5 -168q0 -42 11.5 -80.5t33.5 -67.5t55 -46.5t75 -17.5q38 0 70.5 16t56 44.5t37 67t13.5 82.5q0 47 -10 88.5t-32 72.5t-55.5 49t-79.5 18zM524 518v-722h-60v287q-29 -48 -79.5 -72.5t-105.5 -24.5q-59 0 -102.5 22.5t-72 60t-42.5 87.5
t-14 104q0 57 13 107t41.5 86.5t72.5 57.5t107 21q25 0 51 -7t50.5 -20t45 -33t33.5 -45h2v91h60z" />
    <glyph glyph-name="r" unicode="r" horiz-adv-x="330" 
d="M132 421h2q25 62 64.5 86.5t104.5 24.5v-65q-51 0 -84 -17t-52.5 -46t-27 -68t-7.5 -82v-254h-60v518h60v-97z" />
    <glyph glyph-name="s" unicode="s" horiz-adv-x="492" 
d="M112 389q0 -35 24.5 -53.5t61.5 -30t80 -20.5t80 -25.5t61.5 -44.5t24.5 -78q0 -37 -16 -65.5t-44 -47.5t-66.5 -28.5t-84.5 -9.5t-81.5 13.5t-60.5 37.5t-39 56t-16 69h61q14 -67 50.5 -94.5t104.5 -27.5q33 0 57 8t39.5 21.5t23.5 30.5t8 36q0 38 -24.5 56.5t-61.5 29
t-80 18t-80 22.5t-61.5 43t-24.5 79q0 65 47.5 106.5t134.5 41.5q84 0 136.5 -37.5t63.5 -125.5h-61q-8 60 -45.5 84.5t-94.5 24.5t-87 -24.5t-30 -64.5z" />
    <glyph glyph-name="t" unicode="t" horiz-adv-x="278" 
d="M254 -2q-11 -2 -29 -7t-40 -5q-45 0 -68.5 22.5t-23.5 80.5v379h-73v50h73v144h60v-144h97v-50h-97v-355q0 -19 1 -33t6 -23t15.5 -13t29.5 -4q12 0 24.5 2t24.5 5v-49z" />
    <glyph glyph-name="u" unicode="u" horiz-adv-x="555" 
d="M132 518v-340q0 -67 31 -102.5t102 -35.5q37 0 66.5 14.5t49.5 40.5t31 62t11 79v282h60v-518h-60v72h-1q-29 -36 -68 -61t-98 -25q-52 0 -87 14.5t-56.5 40.5t-31 60.5t-9.5 75.5v341h60z" />
    <glyph glyph-name="v" unicode="v" horiz-adv-x="500" 
d="M82 518l168 -444l168 444h65l-201 -518h-67l-198 518h65z" />
    <glyph glyph-name="w" unicode="w" horiz-adv-x="722" 
d="M75 518l134 -442l120 442h67l114 -438l136 438h61l-168 -518h-64l-113 435h-2l-115 -435h-72l-158 518h60z" />
    <glyph glyph-name="x" unicode="x" horiz-adv-x="500" 
d="M108 518l143 -206l147 206h76l-187 -250l194 -268h-72l-157 224l-161 -224h-73l199 268l-183 250h74z" />
    <glyph glyph-name="y" unicode="y" horiz-adv-x="490" 
d="M85 518l166 -445l166 445h65l-193 -511q-18 -49 -34.5 -88t-35 -66.5t-41 -42t-53.5 -14.5q-16 0 -30.5 2t-26.5 5v56q12 -2 24.5 -4t25.5 -2q15 0 27 6t23.5 22t23.5 44t27 71l-201 522h67z" />
    <glyph glyph-name="z" unicode="z" horiz-adv-x="500" 
d="M454 518v-53l-344 -415h357v-50h-434v53l344 415h-321v50h398z" />
    <glyph glyph-name="braceleft" unicode="{" horiz-adv-x="333" 
d="M285 741q-48 -14 -68 -42t-20 -79v-206q0 -56 -16.5 -90t-65.5 -45v-2q26 -7 42 -20.5t25 -32.5t12 -43t3 -53v-192q0 -45 18 -77t68 -45v-1q-45 0 -74 8.5t-46 27.5t-23.5 50t-6.5 76v182q0 25 -2.5 44t-11 33t-24.5 24.5t-44 18.5v2q51 10 66.5 40t15.5 76v204
q0 38 7 65.5t24.5 45t46.5 25.5t74 8v-2z" />
    <glyph glyph-name="bar" unicode="|" horiz-adv-x="222" 
d="M81 739h60v-739h-60v739z" />
    <glyph glyph-name="braceright" unicode="}" horiz-adv-x="333" 
d="M51 743q45 0 74 -8t46.5 -25.5t24.5 -45t7 -65.5v-204q0 -46 15.5 -76t66.5 -40v-2q-28 -8 -44 -18.5t-24.5 -24.5t-11 -33t-2.5 -44v-182q0 -45 -6.5 -76t-23.5 -50t-46 -27.5t-74 -8.5v1q50 13 68 45t18 77v192q0 29 3 53t12 43t25 32.5t42 20.5v2q-25 6 -41 17t-25 28
t-12.5 39.5t-3.5 50.5v206q0 51 -20 79t-68 42v2z" />
    <glyph glyph-name="asciitilde" unicode="~" horiz-adv-x="660" 
d="M221 324q28 0 58 -11.5t59 -25t55.5 -24.5t47.5 -11q17 0 32 8.5t27.5 21.5t22.5 28t17 29l40 -34q-11 -20 -24.5 -39.5t-31 -35t-38.5 -25t-46 -9.5q-24 0 -55 11t-61.5 24.5t-58 25t-44.5 11.5q-33 0 -58 -25.5t-50 -68.5l-33 47q11 16 24.5 34t30.5 33.5t38 25.5
t48 10z" />
    <glyph glyph-name="afii10051" unicode="&#x402;" horiz-adv-x="778" 
d="M312 405q9 1 28 2t41 2t42.5 1.5t32.5 0.5q78 0 129 -17t81.5 -46.5t43 -68t12.5 -80.5q0 -55 -18 -93t-49.5 -61.5t-76 -34t-96.5 -10.5h-83v58h30q61 0 103.5 6.5t69.5 22t39.5 42.5t12.5 68q0 86 -53 121t-168 35q-18 0 -36 -0.5t-34.5 -2t-30 -3t-20.5 -2.5v-345h-68
v662h-228v58h524v-58h-228v-257z" />
    <glyph glyph-name="afii10052" unicode="&#x403;" horiz-adv-x="563" 
d="M545 720v-58h-396v-662h-68v720h464zM267 788l132 166h92l-164 -166h-60z" />
    <glyph glyph-name="quotesinglbase" unicode="&#x201a;" horiz-adv-x="278" 
d="M175 88v-118q0 -44 -20.5 -70.5t-52.5 -36.5v37q12 8 23 22t11 44v34h-34v88h73z" />
    <glyph glyph-name="afii10100" unicode="&#x453;" horiz-adv-x="404" 
d="M392 518v-50h-260v-468h-60v518h320zM182 575l100 125h70l-124 -125h-46z" />
    <glyph glyph-name="quotedblbase" unicode="&#x201e;" horiz-adv-x="389" 
d="M303 88v-118q0 -44 -20.5 -70.5t-52.5 -36.5v37q12 8 23 22t11 44v34h-34v88h73zM152 88v-118q0 -44 -20.5 -70.5t-52.5 -36.5v37q12 8 23 22t11 44v34h-34v88h73z" />
    <glyph glyph-name="ellipsis" unicode="&#x2026;" horiz-adv-x="1000" 
d="M131 0v88h73v-88h-73zM464 0v88h73v-88h-73zM797 0v88h73v-88h-73z" />
    <glyph glyph-name="dagger" unicode="&#x2020;" 
d="M308 720v-230h211v-54h-211v-602h-60v602h-211v54h211v230h60z" />
    <glyph glyph-name="daggerdbl" unicode="&#x2021;" 
d="M350 365v-42h-151q5 -16 7.5 -34t2.5 -35q0 -56 -29 -103t-66 -84l2 -2q19 10 42 18.5t47 8.5q32 0 55.5 -6.5t44 -14.5t40 -14.5t43.5 -6.5q35 0 60 17t48 40l34 -51q-22 -20 -41 -33.5t-38.5 -21.5t-42 -11.5t-52.5 -3.5q-18 0 -37 7t-40 15t-45.5 15t-54.5 7
q-29 0 -54.5 -11t-50.5 -22l-35 58q44 32 75 78t31 102q0 46 -21 88h-99v42h81q-6 14 -15.5 29t-17.5 33.5t-14 41.5t-6 53q0 39 14 72.5t42 58t69.5 38.5t97.5 14q49 0 91 -15t72 -43t47 -68.5t17 -90.5h-66q-3 79 -45.5 121t-114.5 42q-30 0 -59 -8t-51.5 -24.5t-36 -41.5
t-13.5 -58q0 -23 6.5 -42.5t16.5 -38t22 -36.5t22 -37h166z" />
    <glyph glyph-name="perthousand" unicode="&#x2030;" horiz-adv-x="1287" 
d="M658 331q34 0 64.5 -13t53 -35.5t35.5 -53t13 -64.5t-13 -64t-35.5 -52.5t-53 -35.5t-64.5 -13t-64 13t-52.5 35.5t-35.5 52.5t-13 64t13 64t35.5 52.5t52.5 36t64 13.5zM658 274q-22 0 -41.5 -8.5t-34.5 -23.5t-23.5 -35t-8.5 -42t8.5 -41.5t23.5 -34.5t34.5 -23.5
t41.5 -8.5t41.5 8.5t34.5 23.5t24 34.5t9 41.5t-8.5 41.5t-23.5 34.5t-35 24t-42 9zM232 698q34 0 64.5 -13t53 -35.5t35.5 -53t13 -64.5t-13 -64t-35.5 -52.5t-53 -35.5t-64.5 -13t-64 13t-52.5 35.5t-35.5 52.5t-13 64t13 64t35.5 52.5t52.5 36t64 13.5zM232 641
q-22 0 -41.5 -8.5t-34.5 -23.5t-23.5 -35t-8.5 -42t8.5 -41.5t23.5 -34.5t34.5 -23.5t41.5 -8.5t41.5 8.5t34.5 23.5t24 34.5t9 41.5t-8.5 41.5t-23.5 34.5t-35 24t-42 9zM271 -14h-52l397 719h52zM1054 331q34 0 64.5 -13t53 -35.5t35.5 -53t13 -64.5t-13 -64t-35.5 -52.5
t-53 -35.5t-64.5 -13t-64 13t-52.5 35.5t-35.5 52.5t-13 64t13 64t35.5 52.5t52.5 36t64 13.5zM1054 274q-22 0 -41.5 -8.5t-34.5 -23.5t-23.5 -35t-8.5 -42t8.5 -41.5t23.5 -34.5t34.5 -23.5t41.5 -8.5t41.5 8.5t34.5 23.5t24 34.5t9 41.5t-8.5 41.5t-23.5 34.5t-35 24
t-42 9z" />
    <glyph glyph-name="afii10058" unicode="&#x409;" horiz-adv-x="1029" 
d="M546 720v-309h171q50 0 96.5 -10t82.5 -34.5t58 -65t22 -100.5q0 -41 -11 -77t-38.5 -64t-74 -44t-116.5 -16h-258v662h-276v-312q0 -98 -8 -167t-24.5 -113t-41.5 -64t-59 -20q-14 0 -25 1.5t-28 6.5v55q11 -2 24 -3.5t23 -1.5q35 0 53 84.5t18 272.5v319h412zM546 58
h142q56 0 97.5 5t68.5 20.5t40.5 44t13.5 75.5q0 45 -16 74t-44 46t-67 23.5t-84 6.5h-151v-295z" />
    <glyph glyph-name="guilsinglleft" unicode="&#x2039;" horiz-adv-x="389" 
d="M121 291l146 113v-63l-104 -82l104 -80v-62l-146 111v63z" />
    <glyph glyph-name="afii10059" unicode="&#x40a;" horiz-adv-x="1041" 
d="M149 411h341v309h68v-309h171q50 0 96.5 -10t82.5 -34.5t58 -65t22 -100.5q0 -41 -11 -77t-38.5 -64t-74 -44t-116.5 -16h-258v353h-341v-353h-68v720h68v-309zM558 58h142q56 0 97.5 5t68.5 20.5t40.5 44t13.5 75.5q0 45 -16 74t-44 46t-67 23.5t-84 6.5h-151v-295z" />
    <glyph glyph-name="afii10061" unicode="&#x40c;" horiz-adv-x="663" 
d="M149 357l357 363h89l-284 -287l334 -433h-83l-300 391l-113 -113v-278h-68v720h68v-363zM248 786l132 166h92l-164 -166h-60z" />
    <glyph glyph-name="afii10060" unicode="&#x40b;" horiz-adv-x="778" 
d="M312 405q9 1 28 2t41 2t42.5 1.5t32.5 0.5q78 0 129 -17t81.5 -46.5t43 -68t12.5 -80.5v-199h-68v197q0 86 -53 121t-168 35q-18 0 -36 -0.5t-34.5 -2t-30 -3t-20.5 -2.5v-345h-68v662h-228v58h524v-58h-228v-257z" />
    <glyph glyph-name="afii10145" unicode="&#x40f;" horiz-adv-x="724" 
d="M149 58h426v662h68v-720h-247v-165h-68v165h-247v720h68v-662z" />
    <glyph glyph-name="afii10099" unicode="&#x452;" horiz-adv-x="555" 
d="M132 720v-76h169v-54h-169v-144q33 35 73 60.5t94 25.5q46 0 81.5 -11t59 -37.5t35.5 -70.5t12 -109q0 -120 -16.5 -197t-48.5 -123t-79 -66t-109 -27v54q54 6 90 25t58 61t31.5 112.5t9.5 179.5q0 38 -6 67t-21 48.5t-41 29.5t-66 10q-44 0 -73.5 -17.5t-48.5 -44
t-27 -59t-8 -62.5v-295h-60v590h-67v54h67v76h60z" />
    <glyph glyph-name="quoteleft" unicode="&#x2018;" horiz-adv-x="222" 
d="M69 495v118q0 44 20.5 70.5t52.5 36.5v-37q-12 -8 -23 -22t-11 -44v-34h34v-88h-73z" />
    <glyph glyph-name="quoteright" unicode="&#x2019;" horiz-adv-x="222" 
d="M153 720v-118q0 -44 -20.5 -70.5t-52.5 -36.5v37q12 8 23 22t11 44v34h-34v88h73z" />
    <glyph glyph-name="quotedblleft" unicode="&#x201c;" horiz-adv-x="389" 
d="M237 495v118q0 44 20.5 70.5t52.5 36.5v-37q-12 -8 -23 -22t-11 -44v-34h34v-88h-73zM86 495v118q0 44 20.5 70.5t52.5 36.5v-37q-12 -8 -23 -22t-11 -44v-34h34v-88h-73z" />
    <glyph glyph-name="quotedblright" unicode="&#x201d;" horiz-adv-x="389" 
d="M303 720v-118q0 -44 -20.5 -70.5t-52.5 -36.5v37q12 8 23 22t11 44v34h-34v88h73zM152 720v-118q0 -44 -20.5 -70.5t-52.5 -36.5v37q12 8 23 22t11 44v34h-34v88h73z" />
    <glyph glyph-name="bullet" unicode="&#x2022;" horiz-adv-x="500" 
d="M430 359q0 -37 -14 -69.5t-39 -57t-58 -38.5t-70 -14t-69.5 14t-57 38.5t-38.5 57t-14 69.5t14 70t38.5 58t57 39t69.5 14t70 -14t58 -39t39 -58t14 -70z" />
    <glyph glyph-name="endash" unicode="&#x2013;" horiz-adv-x="500" 
d="M500 220h-500v60h500v-60z" />
    <glyph glyph-name="emdash" unicode="&#x2014;" horiz-adv-x="1000" 
d="M0 220v60h1000v-60h-1000z" />
    <glyph glyph-name="trademark" unicode="&#x2122;" horiz-adv-x="940" 
d="M523 720l120 -311h2l118 311h96v-421h-52v377h-2l-145 -377h-34l-145 377h-2v-377h-52v421h96zM349 720v-40h-134v-381h-52v381h-134v40h320z" />
    <glyph glyph-name="afii10106" unicode="&#x459;" horiz-adv-x="824" 
d="M444 518v-217h152q42 0 75 -11t56.5 -31.5t36 -48.5t12.5 -61q0 -52 -21 -81.5t-49.5 -44.5t-57.5 -19t-44 -4h-220v468h-213v-97q0 -27 -0.5 -58t-2 -61t-3.5 -56.5t-4 -45.5q-9 -78 -35.5 -116t-74.5 -38q-10 0 -22 1.5t-22 5.5v49q9 -2 20 -3t16 -1q24 0 43 34
q7 12 12 38.5t8 76.5t4 128t1 193h333zM444 50h135q68 0 100.5 26t32.5 73q0 48 -34.5 75t-85.5 27h-148v-201z" />
    <glyph glyph-name="guilsinglright" unicode="&#x203a;" horiz-adv-x="389" 
d="M268 230l-146 -113v63l104 82l-104 80v62l146 -111v-63z" />
    <glyph glyph-name="afii10107" unicode="&#x45a;" horiz-adv-x="835" 
d="M135 301h260v217h60v-217h152q42 0 75 -11t56.5 -31.5t36 -48.5t12.5 -61q0 -52 -21 -81.5t-49.5 -44.5t-57.5 -19t-44 -4h-220v251h-260v-251h-60v518h60v-217zM455 50h135q68 0 100.5 26t32.5 73q0 48 -34.5 75t-85.5 27h-148v-201z" />
    <glyph glyph-name="afii10109" unicode="&#x45c;" horiz-adv-x="504" 
d="M132 272l254 246h82l-194 -187l217 -331h-67l-194 289l-98 -93v-196h-60v518h60v-246zM227 575l100 125h70l-124 -125h-46z" />
    <glyph glyph-name="afii10108" unicode="&#x45b;" horiz-adv-x="555" 
d="M132 720v-76h169v-54h-169v-144q36 38 74.5 62t92.5 24q85 0 134.5 -47t49.5 -146v-339h-60v338q0 70 -31 105t-103 35q-42 0 -72 -16.5t-48.5 -43.5t-27.5 -62t-9 -72v-284h-60v590h-67v54h67v76h60z" />
    <glyph glyph-name="afii10193" unicode="&#x45f;" horiz-adv-x="552" 
d="M132 50h288v468h60v-518h-174v-136h-60v136h-174v518h60v-468z" />
    <glyph glyph-name="afii10062" unicode="&#x40e;" horiz-adv-x="580" 
d="M75 720l214 -521l220 521h75l-273 -627q-14 -32 -28.5 -53t-31.5 -34.5t-38.5 -19t-49.5 -5.5q-24 0 -42 5v57q6 -2 16.5 -3t21.5 -1q33 0 49.5 12t29.5 39l14 29l-248 601h71zM212 929q8 -42 35.5 -61.5t69.5 -19.5t69 19.5t38 61.5h37q-7 -63 -47 -94.5t-102 -31.5
q-60 0 -97 33t-42 93h39z" />
    <glyph glyph-name="afii10110" unicode="&#x45e;" horiz-adv-x="490" 
d="M85 518l166 -445l166 445h65l-193 -511q-18 -49 -34.5 -88t-35 -66.5t-41 -42t-53.5 -14.5q-16 0 -30.5 2t-26.5 5v56q12 -2 24.5 -4t25.5 -2q15 0 27 6t23.5 22t23.5 44t27 71l-201 522h67zM161 697q8 -42 35.5 -61.5t69.5 -19.5t69 19.5t38 61.5h37q-7 -63 -47 -94.5
t-102 -31.5q-60 0 -97 33t-42 93h39z" />
    <glyph glyph-name="afii10057" unicode="&#x408;" horiz-adv-x="500" 
d="M419 720v-523q0 -105 -49 -160.5t-154 -55.5q-61 0 -98 20.5t-57.5 55t-27.5 79t-7 92.5h68q0 -33 2.5 -66.5t15 -59.5t39 -42.5t73.5 -16.5q70 0 98.5 40t28.5 116v521h68z" />
    <glyph glyph-name="currency" unicode="&#xa4;" 
d="M75 152q-24 35 -36 70t-12 78q0 45 11 80t37 71l-43 43l52 53l44 -43q34 26 73 37.5t81 11.5t77 -13t69 -36l44 43l52 -53l-43 -43q26 -37 37 -73.5t11 -82.5q0 -42 -12.5 -75t-35.5 -68l43 -42l-52 -53l-44 43q-68 -50 -155 -50q-42 0 -77 13.5t-68 36.5l-44 -43l-52 53
zM282 481q-39 0 -72.5 -13.5t-58 -38t-38.5 -57.5t-14 -72q0 -37 14 -69.5t38.5 -56.5t56.5 -38t68 -14q37 0 70 14t58 38.5t39 57.5t14 71q0 36 -13.5 68t-37.5 56.5t-56 39t-68 14.5z" />
    <glyph glyph-name="afii10050" unicode="&#x490;" horiz-adv-x="563" 
d="M477 720v130h68v-188h-396v-662h-68v720h396z" />
    <glyph glyph-name="brokenbar" unicode="&#xa6;" horiz-adv-x="222" 
d="M81 296h60v-296h-60v296zM81 739h60v-296h-60v296z" />
    <glyph glyph-name="section" unicode="&#xa7;" 
d="M190 447q-40 -17 -64 -42t-24 -62q0 -19 8 -35t20 -29.5t27 -25t30 -21.5l178 -115q16 9 32 20t29 25t20.5 30.5t7.5 37.5q0 20 -8.5 36.5t-22 30t-29.5 24.5t-31 20zM402 560q0 63 -30 94t-94 31q-48 0 -80 -23.5t-32 -73.5q0 -34 25.5 -61t63.5 -51.5t82 -48t82 -50.5
t63.5 -60.5t25.5 -76.5q0 -29 -9 -51.5t-24 -41t-35 -33.5t-42 -30q26 -22 42 -49.5t16 -60.5q0 -38 -14 -67t-38 -48.5t-56 -29.5t-68 -10q-42 0 -76.5 13.5t-58.5 37.5t-37 57t-13 73h60q0 -62 31.5 -94.5t94.5 -32.5q21 0 41 6t35.5 18t25 29.5t9.5 40.5t-10 42t-26 35.5
t-36 31t-39 26.5l-131 82q-48 29 -75 64.5t-27 86.5t31 88t76 56q-23 26 -38 52t-15 63q0 29 11.5 55.5t34.5 46.5t57 31.5t78 11.5q84 0 128.5 -48.5t44.5 -130.5h-54z" />
    <glyph glyph-name="afii10023" unicode="&#x401;" horiz-adv-x="611" 
d="M560 720v-58h-411v-251h371v-58h-371v-295h421v-58h-489v720h479zM204 786v89h60v-89h-60zM363 786v89h60v-89h-60z" />
    <glyph glyph-name="copyright" unicode="&#xa9;" horiz-adv-x="800" 
d="M401 -19q-79 0 -148 30t-120.5 81.5t-81.5 120.5t-30 148q0 78 30 147t81.5 120t120.5 81t148 30q78 0 147 -30t120.5 -81t81 -120t29.5 -147q0 -79 -29.5 -148t-81 -120.5t-120.5 -81.5t-147 -30zM401 31q69 0 127.5 25.5t100.5 70t66 104.5t24 130q0 69 -24 129
t-66 104t-100.5 69.5t-127.5 25.5t-128 -25.5t-101.5 -69.5t-66.5 -104t-24 -129q0 -70 24 -130t66.5 -104.5t101.5 -70t128 -25.5zM593 292q-3 -34 -18.5 -61.5t-39.5 -46.5t-54 -29t-63 -10q-48 0 -86.5 17t-66 46t-42.5 69t-15 87t14 86.5t41 68.5t65.5 45.5t86.5 16.5
q69 0 118 -37t60 -106h-54q-8 45 -43 72t-80 27q-38 0 -66 -13.5t-46.5 -37t-28 -55t-9.5 -66.5q0 -34 10 -66t29.5 -56.5t47.5 -39t65 -14.5q22 0 42.5 7t37 20.5t27.5 32.5t14 43h54z" />
    <glyph glyph-name="afii10053" unicode="&#x404;" horiz-adv-x="722" 
d="M592 511q-21 92 -78 131t-149 39q-60 0 -106.5 -22.5t-78 -60t-48 -86t-16.5 -101.5h308v-58h-308q0 -62 13.5 -118.5t43.5 -100t78.5 -69.5t119.5 -26q46 0 84 15t66.5 41.5t48 62.5t29.5 79h71q-12 -52 -35 -98.5t-60.5 -81.5t-91 -55.5t-125.5 -20.5q-83 0 -142 30.5
t-96.5 82.5t-54.5 120.5t-17 145.5q0 103 25.5 175t70.5 117.5t106 66t133 20.5q55 0 102.5 -14.5t84 -43.5t60 -71.5t32.5 -98.5h-70z" />
    <glyph glyph-name="guillemotleft" unicode="&#xab;" 
d="M297 291l146 113v-63l-104 -82l104 -80v-62l-146 111v63zM113 291l146 113v-63l-104 -82l104 -80v-62l-146 111v63z" />
    <glyph glyph-name="logicalnot" unicode="&#xac;" horiz-adv-x="660" 
d="M516 220h-436v60h500v-266h-64v206z" />
    <glyph glyph-name="sfthyphen" unicode="&#xad;" horiz-adv-x="333" 
d="M293 280v-60h-253v60h253z" />
    <glyph glyph-name="registered" unicode="&#xae;" horiz-adv-x="800" 
d="M401 -19q-79 0 -148 30t-120.5 81.5t-81.5 120.5t-30 148q0 78 30 147t81.5 120t120.5 81t148 30q78 0 147 -30t120.5 -81t81 -120t29.5 -147q0 -79 -29.5 -148t-81 -120.5t-120.5 -81.5t-147 -30zM401 31q69 0 127.5 25.5t100.5 70t66 104.5t24 130q0 69 -24 129
t-66 104t-100.5 69.5t-127.5 25.5t-128 -25.5t-101.5 -69.5t-66.5 -104t-24 -129q0 -70 24 -130t66.5 -104.5t101.5 -70t128 -25.5zM260 572h185q84 0 117 -30t33 -82q0 -62 -37.5 -89t-95.5 -27l128 -195h-62l-121 195h-95v-195h-52v423zM312 385h117q22 0 42 3t35 11
t24 23t9 39q0 25 -9.5 39.5t-24.5 22t-34 10t-38 2.5h-121v-150z" />
    <glyph glyph-name="afii10056" unicode="&#x407;" horiz-adv-x="230" 
d="M149 0h-68v720h68v-720zM0 786v89h60v-89h-60zM170 786v89h60v-89h-60z" />
    <glyph glyph-name="degree" unicode="&#xb0;" horiz-adv-x="400" 
d="M351 555q0 -31 -12 -58.5t-32.5 -47.5t-47.5 -32t-58 -12t-58.5 12t-47.5 32t-32 47.5t-12 58.5q0 30 12 57.5t32 48t47.5 32.5t58.5 12t58 -12t47.5 -32.5t32.5 -47.5t12 -58zM311 555q0 22 -9 42t-24 35t-35 24t-43 9t-42.5 -9t-34.5 -24t-23.5 -35t-8.5 -42
q0 -23 8.5 -43t23.5 -35t35 -23.5t43 -8.5q22 0 42 8.5t35 23.5t24 35t9 43z" />
    <glyph glyph-name="plusminus" unicode="&#xb1;" horiz-adv-x="660" 
d="M300 592h60v-170h220v-60h-220v-170h-60v170h-220v60h220v170zM80 152h500v-60h-500v60z" />
    <glyph glyph-name="afii10055" unicode="&#x406;" horiz-adv-x="230" 
d="M149 0h-68v720h68v-720z" />
    <glyph glyph-name="afii10103" unicode="&#x456;" horiz-adv-x="204" 
d="M132 0h-60v518h60v-518zM72 631v89h60v-89h-60z" />
    <glyph glyph-name="afii10098" unicode="&#x491;" horiz-adv-x="404" 
d="M332 518v97h60v-147h-260v-468h-60v518h260z" />
    <glyph glyph-name="mu" unicode="&#xb5;" horiz-adv-x="555" 
d="M132 518v-340q0 -67 31 -102.5t102 -35.5q37 0 66.5 14.5t49.5 40.5t31 62t11 79v282h60v-518h-60v72h-1q-30 -38 -69 -62t-97 -24q-42 0 -73 10t-51 22v-222h-60v722h60z" />
    <glyph glyph-name="paragraph" unicode="&#xb6;" horiz-adv-x="650" 
d="M506 -146h-60v799h-128v-799h-60v482q-38 0 -73 15t-61.5 41t-42 60.5t-15.5 73.5q0 94 58.5 144t164.5 50h217v-866z" />
    <glyph glyph-name="periodcentered" unicode="&#xb7;" horiz-adv-x="278" 
d="M139 398q20 0 34 -14t14 -34t-14 -34.5t-34 -14.5t-34.5 14.5t-14.5 34.5t15 34t34 14z" />
    <glyph glyph-name="afii10071" unicode="&#x451;" horiz-adv-x="562" 
d="M450 295q0 38 -10.5 71.5t-31 58t-51.5 39t-71 14.5t-70.5 -15t-52 -40t-34.5 -58t-17 -70h338zM112 245q0 -42 11 -79t33 -65t54.5 -44.5t75.5 -16.5q59 0 101 31t56 88h67q-11 -37 -29 -68.5t-45 -55t-64 -36.5t-86 -13q-62 0 -107 21t-74 57.5t-43 86t-14 106.5
t16.5 107t47 87.5t74.5 59t100 21.5q107 0 167.5 -73t60.5 -214h-402zM180 597v89h60v-89h-60zM334 597v89h60v-89h-60z" />
    <glyph glyph-name="afii61352" unicode="&#x2116;" horiz-adv-x="1079" 
d="M156 720l416 -629h2v629h68v-720h-79l-414 628h-2v-628h-68v720h77zM713 91h312v-39h-312v39zM752 320q0 -58 30 -96t87 -38q31 0 53 11.5t36 30.5t21 43t7 49q0 27 -6.5 51.5t-21 43t-36.5 29t-53 10.5t-53 -11.5t-36.5 -30.5t-21 -43t-6.5 -49zM869 156
q-32 0 -60.5 10.5t-49.5 31t-33.5 51t-12.5 71.5q0 34 9.5 64t29 52t49 35t68.5 13t68.5 -13t49 -35t29 -52t9.5 -64q0 -74 -42.5 -119t-113.5 -45z" />
    <glyph glyph-name="afii10101" unicode="&#x454;" horiz-adv-x="557" 
d="M440 355q-16 58 -55 90.5t-99 32.5q-41 0 -71.5 -15.5t-51.5 -40.5t-33 -56.5t-15 -64.5h203v-50h-206q0 -40 10.5 -78t32 -67.5t54 -47.5t77.5 -18q67 0 107.5 37t51.5 102h64q-8 -43 -25.5 -78.5t-45 -61t-65.5 -39.5t-87 -14q-62 0 -107 21t-74 57.5t-43 86.5t-14 107
q0 54 15.5 103.5t45.5 87.5t74.5 60.5t102.5 22.5q90 0 145.5 -43t69.5 -134h-61z" />
    <glyph glyph-name="guillemotright" unicode="&#xbb;" 
d="M443 230l-146 -113v63l104 82l-104 80v62l146 -111v-63zM259 230l-146 -113v63l104 82l-104 80v62l146 -111v-63z" />
    <glyph glyph-name="afii10105" unicode="&#x458;" horiz-adv-x="220" 
d="M148 518v-587q0 -33 -3 -58t-13.5 -42.5t-31 -26t-56.5 -8.5q-22 0 -39 4v53q5 -1 14 -1.5t11 -0.5q35 0 46.5 18.5t11.5 53.5v595h60zM88 631v89h60v-89h-60z" />
    <glyph glyph-name="afii10054" unicode="&#x405;" horiz-adv-x="627" 
d="M109 215q4 -48 21.5 -81.5t45 -54.5t63.5 -30.5t77 -9.5q48 0 83 12t57 32.5t32.5 47.5t10.5 57q0 42 -19 68t-49.5 42.5t-70 26.5t-81 19.5t-81 22.5t-70 35t-49.5 56.5t-19 87.5q0 37 15.5 72t46 62t76.5 43t106 16q61 0 106.5 -17t75.5 -46.5t45 -68.5t15 -83h-65
q0 41 -14.5 71t-39.5 49t-57 28t-66 9q-47 0 -80.5 -12t-55.5 -31.5t-32 -44.5t-10 -50q0 -41 19 -65.5t50 -40t70.5 -25t81 -18.5t81 -21.5t70.5 -35t50 -57.5t19 -89q0 -100 -69 -155t-194 -55q-56 0 -104 14.5t-83 44t-54.5 73t-19.5 102.5h66z" />
    <glyph glyph-name="afii10102" unicode="&#x455;" horiz-adv-x="492" 
d="M112 389q0 -35 24.5 -53.5t61.5 -30t80 -20.5t80 -25.5t61.5 -44.5t24.5 -78q0 -37 -16 -65.5t-44 -47.5t-66.5 -28.5t-84.5 -9.5t-81.5 13.5t-60.5 37.5t-39 56t-16 69h61q14 -67 50.5 -94.5t104.5 -27.5q33 0 57 8t39.5 21.5t23.5 30.5t8 36q0 38 -24.5 56.5t-61.5 29
t-80 18t-80 22.5t-61.5 43t-24.5 79q0 65 47.5 106.5t134.5 41.5q84 0 136.5 -37.5t63.5 -125.5h-61q-8 60 -45.5 84.5t-94.5 24.5t-87 -24.5t-30 -64.5z" />
    <glyph glyph-name="afii10104" unicode="&#x457;" horiz-adv-x="204" 
d="M132 0h-60v518h60v-518zM0 610v89h60v-89h-60zM144 610v89h60v-89h-60z" />
    <glyph glyph-name="afii10017" unicode="&#x410;" horiz-adv-x="651" 
d="M365 720l276 -720h-70l-83 226h-328l-85 -226h-70l283 720h77zM183 284h282l-141 378z" />
    <glyph glyph-name="afii10018" unicode="&#x411;" horiz-adv-x="632" 
d="M527 720v-58h-378v-251h171q50 0 96.5 -10t82.5 -34.5t58 -65t22 -100.5q0 -41 -11 -77t-38.5 -64t-74 -44t-116.5 -16h-258v720h446zM149 58h142q56 0 97.5 5t68.5 20.5t40.5 44t13.5 75.5q0 45 -16 74t-44 46t-67 23.5t-84 6.5h-151v-295z" />
    <glyph glyph-name="afii10019" unicode="&#x412;" horiz-adv-x="663" 
d="M149 58h173q56 0 97.5 5t68.5 20.5t40.5 44t13.5 75.5q0 45 -15 72.5t-43 42.5t-67 20.5t-87 5.5h-181v-286zM149 402h172q53 0 89 9t58 26.5t31.5 43t9.5 58.5q0 34 -11 57.5t-35 38t-62.5 21t-94.5 6.5h-157v-260zM81 720h260q63 0 108 -13t73.5 -37t41.5 -57.5
t13 -73.5q0 -38 -10 -65.5t-26 -46t-36.5 -29t-42.5 -14.5v-2q75 -11 111.5 -59t36.5 -120q0 -56 -17.5 -95t-48.5 -63t-74.5 -34.5t-94.5 -10.5h-294v720z" />
    <glyph glyph-name="afii10020" unicode="&#x413;" horiz-adv-x="563" 
d="M545 720v-58h-396v-662h-68v720h464z" />
    <glyph glyph-name="afii10021" unicode="&#x414;" horiz-adv-x="694" 
d="M613 720v-662h55v-223h-68v165h-506v-165h-68v223h53q20 43 35.5 80.5t26 82t16 101.5t5.5 138v260h451zM230 662v-230q0 -64 -5.5 -116t-15.5 -96.5t-25 -84t-34 -77.5h395v604h-315z" />
    <glyph glyph-name="afii10022" unicode="&#x415;" horiz-adv-x="611" 
d="M560 720v-58h-411v-251h371v-58h-371v-295h421v-58h-489v720h479z" />
    <glyph glyph-name="afii10024" unicode="&#x416;" horiz-adv-x="999" 
d="M534 348l336 372h80l-274 -301l314 -419h-78l-281 373l-97 -107v-266h-68v266l-97 107l-281 -373h-78l314 419l-274 301h80l336 -372v372h68v-372z" />
    <glyph glyph-name="afii10025" unicode="&#x417;" horiz-adv-x="637" 
d="M63 523q0 48 15.5 88t46.5 68t76 43.5t104 15.5q54 0 100.5 -11.5t80 -34.5t52.5 -58t19 -81q0 -57 -25.5 -102t-86.5 -71q34 -9 60 -28t43.5 -44t26.5 -53.5t9 -58.5q0 -99 -66 -157t-203 -58q-58 0 -107.5 14.5t-85.5 43.5t-56.5 73t-20.5 103h66q8 -97 61 -136.5
t146 -39.5q55 0 93 12t61.5 32.5t33.5 47.5t10 57q0 36 -12 66.5t-35.5 52t-57 34t-75.5 12.5h-59v58h44q79 0 123.5 31.5t44.5 106.5q0 34 -15 59t-40 41t-58.5 23.5t-70.5 7.5q-36 0 -67.5 -8.5t-55.5 -27.5t-38 -49t-14 -72h-67z" />
    <glyph glyph-name="afii10026" unicode="&#x418;" horiz-adv-x="725" 
d="M149 91h2l416 629h77v-720h-68v628h-2l-414 -628h-79v720h68v-629z" />
    <glyph glyph-name="afii10027" unicode="&#x419;" horiz-adv-x="725" 
d="M149 91h2l416 629h77v-720h-68v628h-2l-414 -628h-79v720h68v-629zM264 929q8 -42 35.5 -61.5t69.5 -19.5t69 19.5t38 61.5h37q-7 -63 -47 -94.5t-102 -31.5q-60 0 -97 33t-42 93h39z" />
    <glyph glyph-name="afii10028" unicode="&#x41a;" horiz-adv-x="663" 
d="M149 357l357 363h89l-284 -287l334 -433h-83l-300 391l-113 -113v-278h-68v720h68v-363z" />
    <glyph glyph-name="afii10029" unicode="&#x41b;" horiz-adv-x="694" 
d="M613 720v-720h-68v662h-343v-312q0 -98 -8 -167t-24.5 -113t-41.5 -64t-59 -20q-14 0 -25 1.5t-28 6.5v55q11 -2 24 -3.5t23 -1.5q35 0 53 84.5t18 272.5v319h479z" />
    <glyph glyph-name="afii10030" unicode="&#x41c;" horiz-adv-x="839" 
d="M185 720l236 -635h2l232 635h103v-720h-68v642h-2l-236 -642h-64l-237 642h-2v-642h-68v720h104z" />
    <glyph glyph-name="afii10031" unicode="&#x41d;" horiz-adv-x="724" 
d="M149 411h426v309h68v-720h-68v353h-426v-353h-68v720h68v-309z" />
    <glyph glyph-name="afii10032" unicode="&#x41e;" horiz-adv-x="777" 
d="M53 359q0 78 21.5 147.5t63.5 121t104 81.5t143 30q84 0 147.5 -29.5t106 -81t64 -121t21.5 -148.5q0 -78 -21.5 -146.5t-63.5 -120t-105 -81.5t-146 -30t-146 30t-105 81.5t-63 120t-21 146.5zM389 39q70 0 120.5 26.5t83 70.5t48 102t15.5 121q0 75 -18.5 134.5
t-53.5 101.5t-85 64t-112 22q-69 0 -119.5 -27t-83 -71.5t-48 -102.5t-15.5 -121q0 -64 15.5 -122t48 -102t83 -70t121.5 -26z" />
    <glyph glyph-name="afii10033" unicode="&#x41f;" horiz-adv-x="724" 
d="M643 720v-720h-68v662h-426v-662h-68v720h562z" />
    <glyph glyph-name="afii10034" unicode="&#x420;" horiz-adv-x="632" 
d="M149 0h-68v720h258q70 0 116.5 -16t74 -44t38.5 -64.5t11 -76.5q0 -60 -22 -99t-58 -61.5t-83 -31.5t-97 -9h-170v-318zM149 376h150q48 0 87 5.5t67 20.5t43 42.5t15 72.5q0 47 -13.5 75.5t-40.5 44t-68.5 20.5t-97.5 5h-142v-286z" />
    <glyph glyph-name="afii10035" unicode="&#x421;" horiz-adv-x="727" 
d="M597 511q-21 92 -78 131t-149 39q-65 0 -112 -26t-77.5 -70t-45 -101.5t-14.5 -121.5q0 -60 12.5 -118t41.5 -103.5t78 -73.5t123 -28q46 0 84 15t66.5 41.5t48 62.5t29.5 79h71q-12 -52 -35 -98.5t-60.5 -81.5t-91 -55.5t-125.5 -20.5q-83 0 -142 30.5t-96.5 82.5
t-54.5 120.5t-17 145.5q0 103 25.5 175t70.5 117.5t106 66t133 20.5q55 0 102.5 -14.5t84 -43.5t60 -71.5t32.5 -98.5h-70z" />
    <glyph glyph-name="afii10036" unicode="&#x422;" 
d="M312 0h-68v662h-228v58h524v-58h-228v-662z" />
    <glyph glyph-name="afii10037" unicode="&#x423;" horiz-adv-x="580" 
d="M75 720l214 -521l220 521h75l-273 -627q-14 -32 -28.5 -53t-31.5 -34.5t-38.5 -19t-49.5 -5.5q-24 0 -42 5v57q6 -2 16.5 -3t21.5 -1q33 0 49.5 12t29.5 39l14 29l-248 601h71z" />
    <glyph glyph-name="afii10038" unicode="&#x424;" horiz-adv-x="840" 
d="M454 720v-62h49q64 0 116 -23t89.5 -63t58 -94t20.5 -115q0 -63 -20.5 -116.5t-58 -92.5t-89.5 -61t-116 -22h-49v-71h-68v71h-49q-64 0 -116 22t-89.5 61t-58 92.5t-20.5 116.5q0 61 20.5 115t58 94t89.5 63t116 23h49v62h68zM386 600h-47q-51 0 -91.5 -18t-68.5 -49.5
t-43 -74.5t-15 -93t15 -93t43 -75t68.5 -50t91.5 -18h47v471zM454 129h47q51 0 91.5 18t68.5 50t43 75t15 93t-15 93t-43 74.5t-68.5 49.5t-91.5 18h-47v-471z" />
    <glyph glyph-name="afii10039" unicode="&#x425;" horiz-adv-x="611" 
d="M107 720l197 -303l198 303h79l-236 -350l247 -370h-78l-210 318l-209 -318h-77l248 370l-238 350h79z" />
    <glyph glyph-name="afii10040" unicode="&#x426;" horiz-adv-x="724" 
d="M149 58h426v662h68v-662h55v-223h-68v165h-549v720h68v-662z" />
    <glyph glyph-name="afii10041" unicode="&#x427;" horiz-adv-x="675" 
d="M143 720v-194q0 -45 15.5 -72.5t43 -42.5t67 -20.5t87.5 -5.5q26 0 46.5 1t39.5 2.5t38.5 4t45.5 5.5v322h68v-720h-68v338q-24 -4 -53.5 -6t-60.5 -3t-61 -1.5t-57 -0.5q-51 0 -91.5 11.5t-69 37t-43.5 66t-15 97.5v181h68z" />
    <glyph glyph-name="afii10042" unicode="&#x428;" horiz-adv-x="966" 
d="M149 58h300v662h68v-662h300v662h68v-720h-804v720h68v-662z" />
    <glyph glyph-name="afii10043" unicode="&#x429;" horiz-adv-x="966" 
d="M149 58h300v662h68v-662h300v662h68v-662h55v-223h-68v165h-791v720h68v-662z" />
    <glyph glyph-name="afii10044" unicode="&#x42a;" horiz-adv-x="693" 
d="M210 720v-309h171q50 0 96.5 -10t82.5 -34.5t58 -65t22 -100.5q0 -41 -11 -77t-38.5 -64t-74 -44t-116.5 -16h-258v662h-149v58h217zM210 58h142q56 0 97.5 5t68.5 20.5t40.5 44t13.5 75.5q0 45 -16 74t-44 46t-67 23.5t-84 6.5h-151v-295z" />
    <glyph glyph-name="afii10045" unicode="&#x42b;" horiz-adv-x="859" 
d="M149 411h171q50 0 96.5 -10t82.5 -34.5t58 -65t22 -100.5q0 -41 -11 -77t-38.5 -64t-74 -44t-116.5 -16h-258v720h68v-309zM149 58h142q56 0 97.5 5t68.5 20.5t40.5 44t13.5 75.5q0 45 -16 74t-44 46t-67 23.5t-84 6.5h-151v-295zM778 0h-68v720h68v-720z" />
    <glyph glyph-name="afii10046" unicode="&#x42c;" horiz-adv-x="632" 
d="M149 411h171q50 0 96.5 -10t82.5 -34.5t58 -65t22 -100.5q0 -41 -11 -77t-38.5 -64t-74 -44t-116.5 -16h-258v720h68v-309zM149 58h142q56 0 97.5 5t68.5 20.5t40.5 44t13.5 75.5q0 45 -16 74t-44 46t-67 23.5t-84 6.5h-151v-295z" />
    <glyph glyph-name="afii10047" unicode="&#x42d;" horiz-adv-x="723" 
d="M56 511q9 56 32.5 98.5t60 71.5t83.5 43.5t103 14.5q72 0 133 -20.5t106 -66t70.5 -117.5t25.5 -175q0 -77 -17 -145.5t-54.5 -120.5t-96.5 -82.5t-142 -30.5q-72 0 -125.5 20.5t-91 55.5t-60.5 81.5t-35 98.5h71q10 -43 29.5 -79t48 -62.5t66 -41.5t84.5 -15
q71 0 119.5 26t78.5 69.5t43.5 100t13.5 118.5h-308v58h308q-8 55 -25 104.5t-47 86t-73.5 58t-103.5 21.5q-92 0 -149 -39t-78 -131h-70v0z" />
    <glyph glyph-name="afii10048" unicode="&#x42e;" horiz-adv-x="1003" 
d="M279 411q9 70 34 130t66 104t99 69t133 25q84 0 147.5 -29.5t106 -81t64 -121t21.5 -148.5q0 -78 -21.5 -146.5t-63.5 -120t-105 -81.5t-146 -30q-81 0 -143.5 28.5t-105 78.5t-64.5 118t-22 147h-130v-353h-68v720h68v-309h130zM615 39q70 0 120.5 26.5t83 70.5t48 102
t15.5 121q0 75 -18.5 134.5t-53.5 101.5t-85 64t-112 22q-69 0 -119.5 -27t-83 -71.5t-48 -102.5t-15.5 -121q0 -64 15.5 -122t48 -102t83 -70t121.5 -26z" />
    <glyph glyph-name="afii10049" unicode="&#x42f;" horiz-adv-x="632" 
d="M305 318l-201 -318h-81l208 324q-37 6 -69.5 19.5t-56.5 36.5t-38 57t-14 82q0 40 11 76.5t38.5 64.5t74 44t116.5 16h258v-720h-68v318h-178zM483 662h-142q-56 0 -97.5 -5t-68.5 -20.5t-40.5 -44t-13.5 -75.5q0 -45 15 -72.5t43 -42.5t67 -20.5t87 -5.5h150v286z" />
    <glyph glyph-name="afii10065" unicode="&#x430;" horiz-adv-x="558" 
d="M413 272q-20 -11 -59.5 -18t-95.5 -11q-69 -5 -107.5 -31t-38.5 -79q0 -24 9.5 -41.5t25 -29t36 -17t41.5 -5.5q36 0 70 9t60.5 27.5t42.5 47t16 67.5v81zM72 361q3 46 21 78.5t46.5 53t66 30t79.5 9.5q39 0 73.5 -8.5t60 -27t40 -49.5t14.5 -76v-282q0 -25 5.5 -37
t21.5 -12q6 0 15.5 2.5t20.5 6.5v-47q-11 -4 -25 -7t-22 -3q-37 0 -54 16t-22 64h-2q-35 -42 -84 -64t-106 -22q-34 0 -65.5 9t-55.5 28t-38 46.5t-14 65.5q0 132 181 156l115 15q38 5 53.5 18.5t15.5 48.5q0 46 -29.5 75.5t-99.5 29.5q-31 0 -57 -5.5t-45.5 -19t-32 -36
t-16.5 -56.5h-61z" />
    <glyph glyph-name="afii10066" unicode="&#x431;" horiz-adv-x="583" 
d="M119 432q28 46 71 73t109 27q59 0 103.5 -21.5t74 -58t44 -86.5t14.5 -107q0 -62 -17 -112t-48.5 -86t-76 -55.5t-98.5 -19.5q-60 0 -105 22t-75 61.5t-45 94.5t-15 121q0 64 7 128.5t29 118t63 92t110 51.5q45 9 75.5 15.5t50 13.5t28 15t8.5 20h63q0 -26 -15 -44
t-41.5 -31t-62.5 -22t-79 -17q-37 -7 -65.5 -20t-49.5 -36t-35 -56.5t-22 -80.5zM295 40q47 0 80.5 18.5t54.5 49.5t31 70t10 81q0 46 -9.5 86t-30.5 69.5t-54.5 46.5t-81.5 17q-47 0 -80.5 -17.5t-54.5 -46.5t-31 -67.5t-10 -80.5q0 -45 11 -86t33.5 -72t55 -49.5
t76.5 -18.5z" />
    <glyph glyph-name="afii10067" unicode="&#x432;" horiz-adv-x="522" 
d="M132 50h167q51 0 81 25t30 70q0 28 -10.5 47t-27.5 31t-40.5 17t-48.5 5h-151v-195zM132 295h154q20 0 39 5t33.5 15.5t23.5 26.5t9 38q0 48 -29.5 68t-88.5 20h-141v-173zM72 518h241q33 0 58.5 -10.5t43.5 -27t27 -37t9 -41.5q0 -48 -20 -81t-61 -47q42 -11 73 -43
t31 -83q0 -37 -12.5 -64.5t-33.5 -46t-48.5 -28t-56.5 -9.5h-251v518z" />
    <glyph glyph-name="afii10068" unicode="&#x433;" horiz-adv-x="404" 
d="M392 518v-50h-260v-468h-60v518h320z" />
    <glyph glyph-name="afii10069" unicode="&#x434;" horiz-adv-x="553" 
d="M469 518v-468h52v-185h-60v135h-383v-135h-60v185h46q21 38 33.5 78t18.5 79.5t8 78.5t2 75v157h343zM185 468v-114q0 -42 -1.5 -80t-7.5 -74.5t-17.5 -73.5t-30.5 -76h281v418h-224z" />
    <glyph glyph-name="afii10070" unicode="&#x435;" horiz-adv-x="562" 
d="M450 295q0 38 -10.5 71.5t-31 58t-51.5 39t-71 14.5t-70.5 -15t-52 -40t-34.5 -58t-17 -70h338zM112 245q0 -42 11 -79t33 -65t54.5 -44.5t75.5 -16.5q59 0 101 31t56 88h67q-11 -37 -29 -68.5t-45 -55t-64 -36.5t-86 -13q-62 0 -107 21t-74 57.5t-43 86t-14 106.5
t16.5 107t47 87.5t74.5 59t100 21.5q107 0 167.5 -73t60.5 -214h-402z" />
    <glyph glyph-name="afii10072" unicode="&#x436;" horiz-adv-x="734" 
d="M105 518l232 -256v256h60v-256l232 256h78l-186 -204l207 -314h-68l-183 272l-80 -82v-190h-60v190l-80 82l-183 -272h-68l207 314l-186 204h78z" />
    <glyph glyph-name="afii10073" unicode="&#x437;" horiz-adv-x="505" 
d="M54 370q3 36 19 66t41.5 51.5t58.5 33t71 11.5q50 0 86.5 -11.5t60.5 -30t35.5 -43t11.5 -50.5q0 -49 -29.5 -80.5t-68.5 -38.5q48 -11 82.5 -48t34.5 -93q0 -75 -55 -113t-152 -38t-151 46.5t-62 129.5h59q6 -58 46.5 -90t110.5 -32q66 0 103 26.5t37 69.5
q0 30 -10 51.5t-27.5 35.5t-40.5 21t-48 7h-53v50h65q18 0 35.5 7t32 19t23 28.5t8.5 35.5q0 47 -36 67t-96 20q-59 0 -89.5 -25.5t-44.5 -82.5h-58z" />
    <glyph glyph-name="afii10074" unicode="&#x438;" horiz-adv-x="566" 
d="M132 80l296 438h66v-518h-60v438l-295 -438h-67v518h60v-438z" />
    <glyph glyph-name="afii10075" unicode="&#x439;" horiz-adv-x="566" 
d="M132 80l296 438h66v-518h-60v438l-295 -438h-67v518h60v-438zM178 697q8 -42 35.5 -61.5t69.5 -19.5t69 19.5t38 61.5h37q-7 -63 -47 -94.5t-102 -31.5q-60 0 -97 33t-42 93h39z" />
    <glyph glyph-name="afii10076" unicode="&#x43a;" horiz-adv-x="504" 
d="M132 272l254 246h82l-194 -187l217 -331h-67l-194 289l-98 -93v-196h-60v518h60v-246z" />
    <glyph glyph-name="afii10077" unicode="&#x43b;" horiz-adv-x="553" 
d="M470 518v-518h-60v468h-239v-97q0 -27 -0.5 -58t-2 -61t-3.5 -56.5t-4 -45.5q-9 -78 -35.5 -116t-74.5 -38q-10 0 -22 1.5t-22 5.5v49q9 -2 20 -3t16 -1q24 0 43 34q7 12 12 38.5t8 76.5t4 128t1 193h359z" />
    <glyph glyph-name="afii10078" unicode="&#x43c;" horiz-adv-x="649" 
d="M150 518l175 -450l174 450h78v-518h-60v424l-165 -424h-55l-165 424v-424h-60v518h78z" />
    <glyph glyph-name="afii10079" unicode="&#x43d;" horiz-adv-x="558" 
d="M135 301h288v217h60v-518h-60v251h-288v-251h-60v518h60v-217z" />
    <glyph glyph-name="afii10080" unicode="&#x43e;" horiz-adv-x="576" 
d="M288 532q61 0 106 -21.5t75 -58t44.5 -86.5t14.5 -107q0 -62 -17 -112t-48.5 -86t-76 -55.5t-98.5 -19.5q-50 0 -93.5 17t-76 51.5t-51.5 85.5t-19 119q0 57 15 106.5t45 86.5t75 58.5t105 21.5zM288 478q-47 0 -80.5 -18.5t-54.5 -49t-31 -70t-10 -81.5
q0 -48 11.5 -88.5t33.5 -69.5t55 -45t76 -16q47 0 80.5 18.5t54.5 49.5t31 70t10 81q0 46 -9.5 86t-30.5 69.5t-54.5 46.5t-81.5 17z" />
    <glyph glyph-name="afii10081" unicode="&#x43f;" horiz-adv-x="552" 
d="M480 518v-518h-60v468h-288v-468h-60v518h408z" />
    <glyph glyph-name="afii10082" unicode="&#x440;" horiz-adv-x="596" 
d="M307 478q-78 0 -126.5 -58t-48.5 -168q0 -42 11.5 -80.5t33.5 -67.5t55 -46.5t75 -17.5q38 0 70.5 16t56 44.5t37 67t13.5 82.5q0 47 -10 88.5t-32 72.5t-55.5 49t-79.5 18zM132 -204h-60v722h60v-91h2q13 25 33.5 45t45 33t50.5 20t51 7q63 0 107 -21t72.5 -57.5
t41.5 -86.5t13 -107q0 -54 -14 -104t-42.5 -87.5t-72 -60t-102.5 -22.5q-55 0 -105.5 24.5t-79.5 72.5v-287z" />
    <glyph glyph-name="afii10083" unicode="&#x441;" horiz-adv-x="557" 
d="M440 355q-16 58 -55 90.5t-99 32.5q-46 0 -79 -19t-54 -50.5t-31 -71t-10 -79.5q0 -41 9.5 -80t30.5 -70t54 -49.5t80 -18.5q67 0 107.5 37t51.5 102h64q-8 -43 -25.5 -78.5t-45 -61t-65.5 -39.5t-87 -14q-62 0 -107 21t-74 57.5t-43 86.5t-14 107q0 54 15.5 103.5
t45.5 87.5t74.5 60.5t102.5 22.5q90 0 145.5 -43t69.5 -134h-61z" />
    <glyph glyph-name="afii10084" unicode="&#x442;" horiz-adv-x="436" 
d="M422 518v-50h-174v-468h-60v468h-174v50h408z" />
    <glyph glyph-name="afii10085" unicode="&#x443;" horiz-adv-x="490" 
d="M85 518l166 -445l166 445h65l-193 -511q-18 -49 -34.5 -88t-35 -66.5t-41 -42t-53.5 -14.5q-16 0 -30.5 2t-26.5 5v56q12 -2 24.5 -4t25.5 -2q15 0 27 6t23.5 22t23.5 44t27 71l-201 522h67z" />
    <glyph glyph-name="afii10086" unicode="&#x444;" horiz-adv-x="870" 
d="M258 40q39 0 66.5 19t45.5 49.5t26.5 70.5t8.5 82q0 43 -10 82.5t-28.5 69.5t-46 47.5t-62.5 17.5q-38 0 -65.5 -19.5t-45.5 -50t-26.5 -69.5t-8.5 -78q0 -43 8 -83t26 -70.5t45.5 -49t66.5 -18.5zM465 739v-299q21 37 61.5 64.5t94.5 27.5q51 0 89 -22.5t62.5 -60
t37 -87t12.5 -103.5q0 -56 -11.5 -105.5t-36 -87t-62.5 -59t-91 -21.5q-51 0 -90.5 21t-65.5 68v-279h-60v281q-26 -47 -65.5 -69t-90.5 -22q-53 0 -91 22t-62.5 59.5t-36 87.5t-11.5 106q0 54 12.5 103t37 86.5t62.5 59.5t89 22q54 0 94.5 -26.5t61.5 -63.5v297h60zM612 40
q39 0 66.5 18.5t45.5 49t26 70.5t8 83q0 39 -8.5 78t-26.5 69.5t-45.5 50t-65.5 19.5q-35 0 -62.5 -17.5t-46.5 -47.5t-28.5 -69.5t-9.5 -82.5q0 -42 8.5 -82t26.5 -70.5t45.5 -49.5t66.5 -19z" />
    <glyph glyph-name="afii10087" unicode="&#x445;" horiz-adv-x="500" 
d="M108 518l143 -206l147 206h76l-187 -250l194 -268h-72l-157 224l-161 -224h-73l199 268l-183 250h74z" />
    <glyph glyph-name="afii10088" unicode="&#x446;" horiz-adv-x="560" 
d="M132 50h288v468h60v-468h52v-186h-60v136h-400v518h60v-468z" />
    <glyph glyph-name="afii10089" unicode="&#x447;" horiz-adv-x="510" 
d="M115 518v-142q0 -46 31 -71t83 -25q39 0 63.5 1t40.5 3t26 5t19 7v222h60v-518h-60v245q-36 -11 -75.5 -15t-84.5 -4q-33 0 -62.5 10t-52 30t-35.5 49t-13 68v135h60z" />
    <glyph glyph-name="afii10090" unicode="&#x448;" horiz-adv-x="848" 
d="M132 50h262v468h60v-468h262v468h60v-518h-704v518h60v-468z" />
    <glyph glyph-name="afii10091" unicode="&#x449;" horiz-adv-x="856" 
d="M132 50h262v468h60v-468h262v468h60v-468h52v-186h-60v136h-696v518h60v-468z" />
    <glyph glyph-name="afii10092" unicode="&#x44a;" horiz-adv-x="539" 
d="M159 518v-217h152q42 0 75 -11t56.5 -31.5t36 -48.5t12.5 -61q0 -52 -21 -81.5t-49.5 -44.5t-57.5 -19t-44 -4h-220v468h-110v50h170zM159 50h135q68 0 100.5 26t32.5 73q0 48 -34.5 75t-85.5 27h-148v-201z" />
    <glyph glyph-name="afii10093" unicode="&#x44b;" horiz-adv-x="701" 
d="M132 301h152q42 0 75 -11t56.5 -31.5t36 -48.5t12.5 -61q0 -52 -21 -81.5t-49.5 -44.5t-57.5 -19t-44 -4h-220v518h60v-217zM132 50h135q68 0 100.5 26t32.5 73q0 48 -34.5 75t-85.5 27h-148v-201zM629 0h-60v518h60v-518z" />
    <glyph glyph-name="afii10094" unicode="&#x44c;" horiz-adv-x="512" 
d="M132 301h152q42 0 75 -11t56.5 -31.5t36 -48.5t12.5 -61q0 -52 -21 -81.5t-49.5 -44.5t-57.5 -19t-44 -4h-220v518h60v-217zM132 50h135q68 0 100.5 26t32.5 73q0 48 -34.5 75t-85.5 27h-148v-201z" />
    <glyph glyph-name="afii10095" unicode="&#x44d;" horiz-adv-x="555" 
d="M54 355q14 80 69.5 128.5t145.5 48.5q58 0 102.5 -22.5t74.5 -60.5t45.5 -87.5t15.5 -103.5q0 -57 -14 -107t-43 -86.5t-74 -57.5t-107 -21q-49 0 -87 14t-65.5 39.5t-45 61t-25.5 78.5h64q11 -65 51.5 -102t107.5 -37q45 0 77.5 18t54 48t32 68t10.5 77h-206v50h203
q-3 33 -15 65t-33 56.5t-51.5 40t-71.5 15.5q-60 0 -99 -32.5t-55 -90.5h-61v0z" />
    <glyph glyph-name="afii10096" unicode="&#x44e;" horiz-adv-x="766" 
d="M132 301h109q5 49 22 91t46.5 73t71.5 49t97 18q61 0 106 -21.5t75 -58t44.5 -86.5t14.5 -107q0 -62 -17 -112t-48.5 -86t-76 -55.5t-98.5 -19.5q-48 0 -91.5 16t-76.5 49t-52.5 83t-19.5 117h-106v-251h-60v518h60v-217zM654 259q0 46 -9.5 86t-30.5 69.5t-54.5 46.5
t-81.5 17q-47 0 -80.5 -18.5t-54.5 -49t-31 -70t-10 -81.5q0 -48 11.5 -88.5t33.5 -69.5t55 -45t76 -16q47 0 80.5 18.5t54.5 49.5t31 70t10 81z" />
    <glyph glyph-name="afii10097" unicode="&#x44f;" horiz-adv-x="512" 
d="M237 221l-125 -221h-67l131 226q-65 16 -96.5 52.5t-31.5 90.5q0 52 21 81.5t49.5 44.5t57.5 19t44 4h220v-518h-60v221h-143zM380 468h-135q-68 0 -100.5 -26t-32.5 -73q0 -48 34.5 -73t85.5 -25h148v197z" />
    <glyph glyph-name="quotedbl" unicode="&#x22;" horiz-adv-x="278" 
d="M57 720h52v-226h-52v226zM168 720h52v-226h-52v226z" />
    <glyph glyph-name="exclam" unicode="!" horiz-adv-x="333" 
d="M130 496v224h73v-224l-14 -315h-45zM130 0v88h73v-88h-73z" />
    </font>
</defs>
</svg>
